<?xml version="1.0" encoding="UTF-8"?>
<svg xmlns="http://www.w3.org/2000/svg" xmlns:xlink="http://www.w3.org/1999/xlink" width="1440pt" height="809.999993pt" viewBox="0 0 1440 809.999993" version="1.2">
<g id="surface1">
<path style=" stroke:none;fill-rule:nonzero;fill:rgb(53.329468%,54.508972%,56.469727%);fill-opacity:1;" d="M 384.09375 459.898438 L 195.679688 459.898438 C 187.917969 459.898438 181.59375 453.574219 181.59375 445.816406 L 181.59375 257.402344 C 181.59375 249.640625 187.917969 243.316406 195.679688 243.316406 L 384.09375 243.316406 C 391.855469 243.316406 398.179688 249.640625 398.179688 257.402344 L 398.179688 445.816406 C 398.179688 453.574219 391.855469 459.898438 384.09375 459.898438 Z M 384.09375 459.898438 "/>
<path style=" stroke:none;fill-rule:nonzero;fill:rgb(50.19989%,51.368713%,52.938843%);fill-opacity:1;" d="M 170.59375 430.796875 C 173.835938 430.796875 176.5 433.460938 176.5 436.703125 L 176.5 588.492188 C 176.5 591.734375 173.835938 594.398438 170.59375 594.398438 L 18.804688 594.398438 C 15.5625 594.398438 12.902344 591.734375 12.902344 588.492188 L 12.902344 436.703125 C 12.902344 433.460938 15.5625 430.796875 18.804688 430.796875 L 170.59375 430.796875 M 170.59375 425.355469 L 18.804688 425.355469 C 12.554688 425.355469 7.457031 430.449219 7.457031 436.703125 L 7.457031 588.492188 C 7.457031 594.746094 12.554688 599.839844 18.804688 599.839844 L 170.59375 599.839844 C 176.847656 599.839844 181.941406 594.746094 181.941406 588.492188 L 181.941406 436.703125 C 181.941406 430.449219 176.847656 425.355469 170.59375 425.355469 Z M 170.59375 425.355469 "/>
<path style=" stroke:none;fill-rule:nonzero;fill:rgb(53.329468%,54.508972%,56.469727%);fill-opacity:1;" d="M 976.328125 383.800781 L 976.328125 218.277344 C 976.328125 211.457031 981.882812 205.902344 988.699219 205.902344 L 1154.222656 205.902344 C 1161.042969 205.902344 1166.597656 211.457031 1166.597656 218.277344 L 1166.597656 383.800781 C 1166.597656 390.617188 1161.042969 396.171875 1154.222656 396.171875 L 988.699219 396.171875 C 981.882812 396.171875 976.328125 390.617188 976.328125 383.800781 Z M 976.328125 383.800781 "/>
<path style=" stroke:none;fill-rule:nonzero;fill:rgb(50.19989%,51.368713%,52.938843%);fill-opacity:1;" d="M 1006.230469 196.648438 C 1006.230469 199.375 1003.992188 201.617188 1001.261719 201.617188 L 873.566406 201.617188 C 870.839844 201.617188 868.601562 199.375 868.601562 196.648438 L 868.601562 68.953125 C 868.601562 66.226562 870.839844 63.984375 873.566406 63.984375 L 1001.261719 63.984375 C 1003.992188 63.984375 1006.230469 66.226562 1006.230469 68.953125 L 1006.230469 196.648438 M 1010.808594 196.648438 L 1010.808594 68.953125 C 1010.808594 63.691406 1006.523438 59.40625 1001.261719 59.40625 L 873.566406 59.40625 C 868.308594 59.40625 864.023438 63.691406 864.023438 68.953125 L 864.023438 196.648438 C 864.023438 201.910156 868.308594 206.195312 873.566406 206.195312 L 1001.261719 206.195312 C 1006.523438 206.195312 1010.808594 201.910156 1010.808594 196.648438 Z M 1010.808594 196.648438 "/>
<path style=" stroke:none;fill-rule:nonzero;fill:rgb(53.329468%,54.508972%,56.469727%);fill-opacity:1;" d="M 617.785156 519.964844 L 693.78125 519.964844 C 696.910156 519.964844 699.460938 522.515625 699.460938 525.648438 L 699.460938 601.640625 C 699.460938 604.773438 696.910156 607.324219 693.78125 607.324219 L 617.785156 607.324219 C 614.65625 607.324219 612.105469 604.773438 612.105469 601.640625 L 612.105469 525.648438 C 612.105469 522.515625 614.65625 519.964844 617.785156 519.964844 Z M 617.785156 519.964844 "/>
<path style=" stroke:none;fill-rule:nonzero;fill:rgb(50.19989%,51.368713%,52.938843%);fill-opacity:1;" d="M 707.179688 550.433594 C 704.90625 550.433594 703.035156 548.566406 703.035156 546.292969 L 703.035156 439.777344 C 703.035156 437.5 704.90625 435.632812 707.179688 435.632812 L 813.695312 435.632812 C 815.972656 435.632812 817.839844 437.5 817.839844 439.777344 L 817.839844 546.292969 C 817.839844 548.566406 815.972656 550.433594 813.695312 550.433594 L 707.179688 550.433594 M 707.179688 554.253906 L 813.695312 554.253906 C 818.082031 554.253906 821.65625 550.679688 821.65625 546.292969 L 821.65625 439.777344 C 821.65625 435.386719 818.082031 431.8125 813.695312 431.8125 L 707.179688 431.8125 C 702.792969 431.8125 699.21875 435.386719 699.21875 439.777344 L 699.21875 546.292969 C 699.21875 550.679688 702.792969 554.253906 707.179688 554.253906 Z M 707.179688 554.253906 "/>
<path style=" stroke:none;fill-rule:nonzero;fill:rgb(53.329468%,54.508972%,56.469727%);fill-opacity:1;" d="M 508.171875 349.683594 L 508.171875 161.265625 C 508.171875 153.507812 514.496094 147.183594 522.253906 147.183594 L 710.667969 147.183594 C 718.429688 147.183594 724.753906 153.507812 724.753906 161.265625 L 724.753906 349.683594 C 724.753906 357.441406 718.429688 363.765625 710.667969 363.765625 L 522.253906 363.765625 C 514.496094 363.765625 508.171875 357.441406 508.171875 349.683594 Z M 508.171875 349.683594 "/>
<path style=" stroke:none;fill-rule:nonzero;fill:rgb(50.19989%,51.368713%,52.938843%);fill-opacity:1;" d="M 537.273438 136.183594 C 537.273438 139.425781 534.609375 142.085938 531.367188 142.085938 L 379.578125 142.085938 C 376.335938 142.085938 373.671875 139.425781 373.671875 136.183594 L 373.671875 -15.605469 C 373.671875 -18.847656 376.335938 -21.511719 379.578125 -21.511719 L 531.367188 -21.511719 C 534.609375 -21.511719 537.273438 -18.847656 537.273438 -15.605469 L 537.273438 136.183594 M 542.714844 136.183594 L 542.714844 -15.605469 C 542.714844 -21.859375 537.621094 -26.953125 531.367188 -26.953125 L 379.578125 -26.953125 C 373.324219 -26.953125 368.230469 -21.859375 368.230469 -15.605469 L 368.230469 136.183594 C 368.230469 142.433594 373.324219 147.53125 379.578125 147.53125 L 531.367188 147.53125 C 537.621094 147.53125 542.714844 142.433594 542.714844 136.183594 Z M 542.714844 136.183594 "/>
<path style=" stroke:none;fill-rule:nonzero;fill:rgb(53.329468%,54.508972%,56.469727%);fill-opacity:1;" d="M 448.105469 583.375 L 448.105469 659.367188 C 448.105469 662.496094 445.554688 665.046875 442.421875 665.046875 L 366.429688 665.046875 C 363.296875 665.046875 360.746094 662.496094 360.746094 659.367188 L 360.746094 583.375 C 360.746094 580.242188 363.296875 577.691406 366.429688 577.691406 L 442.421875 577.691406 C 445.554688 577.691406 448.105469 580.242188 448.105469 583.375 Z M 448.105469 583.375 "/>
<path style=" stroke:none;fill-rule:nonzero;fill:rgb(50.19989%,51.368713%,52.938843%);fill-opacity:1;" d="M 417.636719 672.769531 C 417.636719 670.492188 419.503906 668.625 421.777344 668.625 L 528.292969 668.625 C 530.570312 668.625 532.4375 670.492188 532.4375 672.769531 L 532.4375 779.285156 C 532.4375 781.558594 530.570312 783.425781 528.292969 783.425781 L 421.777344 783.425781 C 419.503906 783.425781 417.636719 781.558594 417.636719 779.285156 L 417.636719 672.769531 M 413.816406 672.769531 L 413.816406 779.285156 C 413.816406 783.671875 417.390625 787.246094 421.777344 787.246094 L 528.292969 787.246094 C 532.683594 787.246094 536.257812 783.671875 536.257812 779.285156 L 536.257812 672.769531 C 536.257812 668.378906 532.683594 664.804688 528.292969 664.804688 L 421.777344 664.804688 C 417.390625 664.804688 413.816406 668.378906 413.816406 672.769531 Z M 413.816406 672.769531 "/>
<path style=" stroke:none;fill-rule:nonzero;fill:rgb(50.19989%,51.368713%,52.938843%);fill-opacity:1;" d="M 1086.980469 -51.410156 C 1090.222656 -51.410156 1092.882812 -48.75 1092.882812 -45.507812 L 1092.882812 106.28125 C 1092.882812 109.523438 1090.222656 112.1875 1086.980469 112.1875 L 935.191406 112.1875 C 931.949219 112.1875 929.285156 109.523438 929.285156 106.28125 L 929.285156 -45.507812 C 929.285156 -48.75 931.949219 -51.410156 935.191406 -51.410156 L 1086.980469 -51.410156 M 1086.980469 -56.851562 L 935.191406 -56.851562 C 928.9375 -56.851562 923.84375 -51.757812 923.84375 -45.507812 L 923.84375 106.28125 C 923.84375 112.535156 928.9375 117.628906 935.191406 117.628906 L 1086.980469 117.628906 C 1093.230469 117.628906 1098.324219 112.535156 1098.324219 106.28125 L 1098.324219 -45.507812 C 1098.324219 -51.757812 1093.230469 -56.851562 1086.980469 -56.851562 Z M 1086.980469 -56.851562 "/>
<path style=" stroke:none;fill-rule:nonzero;fill:rgb(53.329468%,54.508972%,56.469727%);fill-opacity:1;" d="M 1364.488281 101.164062 L 1364.488281 177.15625 C 1364.488281 180.289062 1361.9375 182.839844 1358.808594 182.839844 L 1282.8125 182.839844 C 1279.683594 182.839844 1277.132812 180.289062 1277.132812 177.15625 L 1277.132812 101.164062 C 1277.132812 98.035156 1279.683594 95.484375 1282.8125 95.484375 L 1358.808594 95.484375 C 1361.9375 95.484375 1364.488281 98.035156 1364.488281 101.164062 Z M 1364.488281 101.164062 "/>
<path style=" stroke:none;fill-rule:nonzero;fill:rgb(50.19989%,51.368713%,52.938843%);fill-opacity:1;" d="M 1334.019531 190.558594 C 1334.019531 188.285156 1335.886719 186.414062 1338.164062 186.414062 L 1444.679688 186.414062 C 1446.953125 186.414062 1448.824219 188.285156 1448.824219 190.558594 L 1448.824219 297.074219 C 1448.824219 299.347656 1446.953125 301.21875 1444.679688 301.21875 L 1338.164062 301.21875 C 1335.886719 301.21875 1334.019531 299.347656 1334.019531 297.074219 L 1334.019531 190.558594 M 1330.199219 190.558594 L 1330.199219 297.074219 C 1330.199219 301.460938 1333.777344 305.035156 1338.164062 305.035156 L 1444.679688 305.035156 C 1449.066406 305.035156 1452.640625 301.460938 1452.640625 297.074219 L 1452.640625 190.558594 C 1452.640625 186.171875 1449.066406 182.597656 1444.679688 182.597656 L 1338.164062 182.597656 C 1333.777344 182.597656 1330.199219 186.171875 1330.199219 190.558594 Z M 1330.199219 190.558594 "/>
<path style=" stroke:none;fill-rule:nonzero;fill:rgb(53.329468%,54.508972%,56.469727%);fill-opacity:1;" d="M 189.488281 863.328125 L 189.488281 697.804688 C 189.488281 690.988281 195.042969 685.433594 201.863281 685.433594 L 367.386719 685.433594 C 374.203125 685.433594 379.761719 690.988281 379.761719 697.804688 L 379.761719 863.328125 C 379.761719 870.148438 374.203125 875.703125 367.386719 875.703125 L 201.863281 875.703125 C 195.042969 875.703125 189.488281 870.148438 189.488281 863.328125 Z M 189.488281 863.328125 "/>
<path style=" stroke:none;fill-rule:nonzero;fill:rgb(50.19989%,51.368713%,52.938843%);fill-opacity:1;" d="M 219.394531 676.179688 C 219.394531 678.90625 217.152344 681.144531 214.425781 681.144531 L 86.730469 681.144531 C 84.003906 681.144531 81.761719 678.90625 81.761719 676.179688 L 81.761719 548.480469 C 81.761719 545.753906 84.003906 543.515625 86.730469 543.515625 L 214.425781 543.515625 C 217.152344 543.515625 219.394531 545.753906 219.394531 548.480469 L 219.394531 676.179688 M 223.972656 676.179688 L 223.972656 548.480469 C 223.972656 543.222656 219.683594 538.9375 214.425781 538.9375 L 86.730469 538.9375 C 81.46875 538.9375 77.183594 543.222656 77.183594 548.480469 L 77.183594 676.179688 C 77.183594 681.4375 81.46875 685.722656 86.730469 685.722656 L 214.425781 685.722656 C 219.683594 685.722656 223.972656 681.4375 223.972656 676.179688 Z M 223.972656 676.179688 "/>
<path style=" stroke:none;fill-rule:nonzero;fill:rgb(53.329468%,54.508972%,56.469727%);fill-opacity:1;" d="M 1237.066406 720.175781 L 1048.648438 720.175781 C 1040.890625 720.175781 1034.566406 713.851562 1034.566406 706.089844 L 1034.566406 517.675781 C 1034.566406 509.917969 1040.890625 503.59375 1048.648438 503.59375 L 1237.066406 503.59375 C 1244.824219 503.59375 1251.148438 509.917969 1251.148438 517.675781 L 1251.148438 706.089844 C 1251.148438 713.851562 1244.824219 720.175781 1237.066406 720.175781 Z M 1237.066406 720.175781 "/>
<path style=" stroke:none;fill-rule:nonzero;fill:rgb(50.19989%,51.368713%,52.938843%);fill-opacity:1;" d="M 1023.566406 691.074219 C 1026.808594 691.074219 1029.46875 693.738281 1029.46875 696.980469 L 1029.46875 848.769531 C 1029.46875 852.011719 1026.808594 854.671875 1023.566406 854.671875 L 871.777344 854.671875 C 868.535156 854.671875 865.871094 852.011719 865.871094 848.769531 L 865.871094 696.980469 C 865.871094 693.738281 868.535156 691.074219 871.777344 691.074219 L 1023.566406 691.074219 M 1023.566406 685.632812 L 871.777344 685.632812 C 865.523438 685.632812 860.429688 690.726562 860.429688 696.980469 L 860.429688 848.769531 C 860.429688 855.019531 865.523438 860.113281 871.777344 860.113281 L 1023.566406 860.113281 C 1029.816406 860.113281 1034.910156 855.019531 1034.910156 848.769531 L 1034.910156 696.980469 C 1034.910156 690.726562 1029.816406 685.632812 1023.566406 685.632812 Z M 1023.566406 685.632812 "/>
<path style=" stroke:none;fill-rule:nonzero;fill:rgb(53.329468%,54.508972%,56.469727%);fill-opacity:1;" d="M 1361.140625 609.957031 L 1361.140625 421.542969 C 1361.140625 413.78125 1367.464844 407.460938 1375.226562 407.460938 L 1563.640625 407.460938 C 1571.402344 407.460938 1577.726562 413.78125 1577.726562 421.542969 L 1577.726562 609.957031 C 1577.726562 617.71875 1571.402344 624.042969 1563.640625 624.042969 L 1375.226562 624.042969 C 1367.464844 624.042969 1361.140625 617.71875 1361.140625 609.957031 Z M 1361.140625 609.957031 "/>
<path style=" stroke:none;fill-rule:nonzero;fill:rgb(50.19989%,51.368713%,52.938843%);fill-opacity:1;" d="M 1390.242188 396.460938 C 1390.242188 399.699219 1387.582031 402.363281 1384.339844 402.363281 L 1232.550781 402.363281 C 1229.308594 402.363281 1226.644531 399.699219 1226.644531 396.460938 L 1226.644531 244.671875 C 1226.644531 241.429688 1229.308594 238.765625 1232.550781 238.765625 L 1384.339844 238.765625 C 1387.582031 238.765625 1390.242188 241.429688 1390.242188 244.671875 L 1390.242188 396.460938 M 1395.683594 396.460938 L 1395.683594 244.671875 C 1395.683594 238.417969 1390.589844 233.324219 1384.339844 233.324219 L 1232.550781 233.324219 C 1226.296875 233.324219 1221.203125 238.417969 1221.203125 244.671875 L 1221.203125 396.460938 C 1221.203125 402.710938 1226.296875 407.804688 1232.550781 407.804688 L 1384.339844 407.804688 C 1390.589844 407.804688 1395.683594 402.710938 1395.683594 396.460938 Z M 1395.683594 396.460938 "/>
<path style=" stroke:none;fill-rule:nonzero;fill:rgb(53.329468%,54.508972%,56.469727%);fill-opacity:1;" d="M 88.054688 12.683594 L 253.578125 12.683594 C 260.394531 12.683594 265.953125 18.238281 265.953125 25.058594 L 265.953125 190.582031 C 265.953125 197.398438 260.394531 202.953125 253.578125 202.953125 L 88.054688 202.953125 C 81.238281 202.953125 75.679688 197.398438 75.679688 190.582031 L 75.679688 25.058594 C 75.679688 18.238281 81.238281 12.683594 88.054688 12.683594 Z M 88.054688 12.683594 "/>
<path style=" stroke:none;fill-rule:nonzero;fill:rgb(50.19989%,51.368713%,52.938843%);fill-opacity:1;" d="M 275.207031 42.589844 C 272.476562 42.589844 270.238281 40.347656 270.238281 37.621094 L 270.238281 -90.074219 C 270.238281 -92.804688 272.476562 -95.042969 275.207031 -95.042969 L 402.902344 -95.042969 C 405.628906 -95.042969 407.871094 -92.804688 407.871094 -90.074219 L 407.871094 37.621094 C 407.871094 40.347656 405.628906 42.589844 402.902344 42.589844 L 275.207031 42.589844 M 275.207031 47.167969 L 402.902344 47.167969 C 408.160156 47.167969 412.449219 42.878906 412.449219 37.621094 L 412.449219 -90.074219 C 412.449219 -95.335938 408.160156 -99.621094 402.902344 -99.621094 L 275.207031 -99.621094 C 269.945312 -99.621094 265.660156 -95.335938 265.660156 -90.074219 L 265.660156 37.621094 C 265.660156 42.878906 269.945312 47.167969 275.207031 47.167969 Z M 275.207031 47.167969 "/>
</g>
</svg>
