<?xml version="1.0" encoding="UTF-8"?>
<svg xmlns="http://www.w3.org/2000/svg" xmlns:xlink="http://www.w3.org/1999/xlink" width="375pt" height="374.999991pt" viewBox="0 0 375 374.999991" version="1.2">
<g id="surface1">
<path style=" stroke:none;fill-rule:nonzero;fill:rgb(32.939148%,32.939148%,32.939148%);fill-opacity:1;" d="M 187.5 0 C 83.945312 0 0 83.945312 0 187.5 C 0 291.054688 83.945312 375 187.5 375 C 291.054688 375 375 291.054688 375 187.5 C 375 83.945312 291.054688 0 187.5 0 Z M 187.5 51.5625 C 221.15625 51.5625 248.4375 78.84375 248.4375 112.5 C 248.4375 146.15625 221.15625 173.4375 187.5 173.4375 C 153.84375 173.4375 126.5625 146.15625 126.5625 112.5 C 126.5625 78.84375 153.84375 51.5625 187.5 51.5625 Z M 187.5 337.5 C 135.5625 337.5 89.8125 311.101562 62.886719 270.992188 C 83.90625 240.429688 150.863281 225 187.5 225 C 224.136719 225 291.09375 240.429688 312.113281 270.992188 C 285.1875 311.101562 239.4375 337.5 187.5 337.5 Z M 187.5 337.5 "/>
</g>
</svg>
